<svg width="68" height="68" viewBox="0 0 68 68" fill="none" xmlns="http://www.w3.org/2000/svg">
<g id="Sans titre - 6 1" clip-path="url(#clip0_13_34)">
<path id="Vector" d="M68 0H0V68H68V0Z" fill="black"/>
<path id="Vector_2" d="M38.5411 22.1401C44.4191 22.1401 49.2158 24.9615 49.2158 28.3948C49.2158 32.1096 46.9112 35.7306 43.1964 36.7649C42.6789 36.4827 41.9738 36.3889 40.9864 36.3889C40.6573 36.3889 40.3288 36.3889 39.9528 36.4358C39.9528 36.4358 39.9521 36.4358 39.9521 36.4351C41.3625 30.887 41.7392 28.0657 43.5725 23.7395L43.1502 23.4111C40.7525 26.044 39.9059 26.8906 36.238 29.6181L36.5195 30.0873C37.4593 29.5705 39.3381 28.2085 39.81 27.8311C38.2583 33.0038 36.8003 41.9846 33.2739 46.7806C31.2046 45.8402 28.8063 44.7583 26.5963 44.7583C24.3863 44.7583 22.5054 46.3101 22.5054 48.2379C22.5054 49.9311 24.2924 51.3414 26.5024 51.3414C28.4771 51.3414 30.358 50.4955 32.1451 49.0845C32.1451 49.0845 32.1457 49.0845 32.1464 49.0845C33.792 49.8365 35.1554 50.5417 36.002 50.5417C37.4599 50.5417 39.4347 48.8961 40.5635 47.5796L40.2819 47.2512C39.6706 47.7211 38.5894 48.144 37.5551 48.144C36.6147 48.144 35.4397 47.7211 34.1701 47.1567C36.7092 44.3353 38.7309 40.5736 39.7182 37.2348H40.0942C41.4107 37.2348 42.2104 38.5043 42.7279 40.103C44.7502 46.4046 47.8537 55.1983 53.1672 55.1983C55.1889 55.1983 56.7876 54.8692 58.0578 54.1171L57.8701 53.6479C56.9766 53.8356 56.3184 53.8356 55.8485 53.8356C49.4062 53.8356 46.8664 44.0076 45.08 39.6807C44.6101 38.5526 44.281 37.7999 43.8105 37.2831C48.4188 36.2481 51.7569 33.0038 51.7569 28.3016C51.7569 23.2696 47.4777 20.213 40.424 20.213C38.9464 20.213 37.4626 20.3694 36.0047 20.6625C35.7987 21.2147 35.6008 21.7757 35.4111 22.3469V22.3475C36.4352 22.2115 37.4837 22.1415 38.5425 22.1415L38.5411 22.1401ZM27.772 49.9793C26.6432 49.9793 23.2105 49.6502 23.2105 47.9101C23.2105 47.3926 24.0102 46.9697 25.0445 46.9697C27.2076 46.9697 29.4645 47.8632 31.3923 48.7567C30.358 49.5557 29.1354 49.9793 27.772 49.9793Z" fill="#C1A670"/>
<path id="Vector_3" d="M27.3645 41.4174C27.406 41.4181 30.9848 40.8694 32.2768 40.0887C32.3911 40.0194 32.4353 39.8752 32.3809 39.7528C32.3271 39.6324 32.1932 39.5692 32.066 39.6046C30.9481 39.9214 30.0546 39.9629 28.9945 39.9629C28.9496 39.9629 28.9054 39.9622 28.8612 39.9609C28.7789 39.9582 28.7007 39.9922 28.6477 40.0554C28.2512 40.5253 27.8228 40.9822 27.3645 41.4174Z" fill="#C1A670"/>
<path id="Vector_4" d="M25.713 38.7294C25.713 38.7294 25.713 38.7294 25.713 38.7287C24.0735 37.3327 23.1636 34.9826 23.1636 32.9093C23.1636 28.2397 26.6017 24.941 31.3012 23.3083L31.3053 23.3049L31.8697 21.8797C30.7246 22.3278 29.6189 22.8575 28.5717 23.4579C24.763 25.621 20.6714 29.4304 20.6245 34.697C20.8102 37.1382 22.2137 39.2741 24.1415 40.4525C24.3013 40.3206 24.459 40.1791 24.6141 40.0275C24.9976 39.6535 25.3628 39.221 25.713 38.7301V38.7294Z" fill="#C1A670"/>
<path id="Vector_5" d="M38.286 13.5898C38.2391 13.4803 38.1371 13.4042 38.0188 13.3919C35.0071 13.0716 31.5602 12.801 28.4287 12.801C20.3401 12.801 14.4622 19.3378 14.4622 27.285C14.4622 28.5627 14.5901 29.4583 14.7662 30.0499C14.8219 30.2376 15.0273 30.3355 15.2089 30.2614C15.9582 29.954 16.4886 29.6385 17.0625 29.0238C17.1414 28.9394 17.1707 28.8198 17.1394 28.7089C16.8504 27.6787 16.7661 26.9661 16.7661 25.451C16.7661 17.2686 20.9515 15.3877 27.6291 15.3877C30.0043 15.3877 33.0793 15.6346 35.5062 16.0126C35.7394 16.0494 35.8612 16.3112 35.736 16.5118C34.954 17.7677 34.1802 19.0992 33.4873 20.4551C33.3145 20.7924 33.1473 21.1317 32.9861 21.4717C32.7467 21.9762 32.5203 22.4828 32.3116 22.9881C32.2381 23.1669 32.1653 23.3451 32.0967 23.5232L31.9301 23.9537C30.7904 27.0001 29.9003 31.8022 28.2411 35.7496C27.8242 36.7431 27.355 37.6842 26.8226 38.5342C26.6771 38.7668 26.5261 38.9926 26.3704 39.2108C25.9291 39.829 25.4469 40.3852 24.9179 40.8598C24.6901 41.0638 24.4535 41.2529 24.208 41.4256C23.1383 42.177 21.8946 42.6156 20.4347 42.6156C16.9497 42.6156 14.7614 40.8721 12.3875 38.605C12.2794 38.5016 12.1155 38.4839 11.9877 38.5608C11.2438 39.0089 10.644 39.3951 10.0313 40.0568C9.90419 40.1941 9.91643 40.4097 10.0579 40.5321C12.4855 42.6367 15.1993 44.2619 18.8353 44.2619C21.3955 44.2619 23.6354 43.3106 25.4762 41.9397C25.7516 41.7343 26.0182 41.5201 26.2759 41.2984C26.8165 40.832 27.3163 40.3308 27.7739 39.8133C27.9806 39.5787 28.1792 39.3414 28.3682 39.1014C29.1135 38.1562 29.718 37.1804 30.1689 36.2678C32.1443 32.2708 32.8494 28.0384 34.0252 24.0414C34.0911 23.815 34.1584 23.5892 34.2271 23.3641C34.3169 23.0704 34.41 22.778 34.5046 22.4862C34.6807 21.9429 34.8656 21.4044 35.0581 20.8719C35.1689 20.5652 35.2811 20.2599 35.3974 19.9573C36.2249 17.8031 37.1851 15.7576 38.2684 13.8856C38.3207 13.7958 38.3268 13.687 38.286 13.5912V13.5898Z" fill="#C1A670"/>
</g>
<defs>
<clipPath id="clip0_13_34">
<rect width="68" height="68" fill="white"/>
</clipPath>
</defs>
</svg>
